<svg width="522" height="166" viewBox="0 0 522 166" fill="none" xmlns="http://www.w3.org/2000/svg">
<path d="M1.3 158V143.9H3.8V158H1.3ZM10.8381 158.16C9.83813 158.16 8.95813 157.953 8.19813 157.54C7.45146 157.127 6.87146 156.533 6.45813 155.76C6.04479 154.987 5.83813 154.087 5.83813 153.06C5.83813 152.033 6.04479 151.14 6.45813 150.38C6.87146 149.607 7.45146 149.013 8.19813 148.6C8.95813 148.187 9.83813 147.98 10.8381 147.98C11.8381 147.98 12.7115 148.187 13.4581 148.6C14.2181 149.013 14.7981 149.607 15.1981 150.38C15.6115 151.14 15.8181 152.033 15.8181 153.06C15.8181 154.087 15.6115 154.987 15.1981 155.76C14.7981 156.533 14.2181 157.127 13.4581 157.54C12.7115 157.953 11.8381 158.16 10.8381 158.16ZM10.8181 156.22C11.6315 156.22 12.2515 155.953 12.6781 155.42C13.1048 154.887 13.3181 154.1 13.3181 153.06C13.3181 152.033 13.1048 151.253 12.6781 150.72C12.2515 150.173 11.6381 149.9 10.8381 149.9C10.0381 149.9 9.41813 150.173 8.97813 150.72C8.55146 151.253 8.33813 152.033 8.33813 153.06C8.33813 154.1 8.55146 154.887 8.97813 155.42C9.40479 155.953 10.0181 156.22 10.8181 156.22ZM27.402 148.22V157.1C27.402 158.633 26.9754 159.793 26.122 160.58C25.282 161.367 24.0354 161.76 22.382 161.76C21.5287 161.76 20.7087 161.647 19.922 161.42C19.1354 161.207 18.4487 160.9 17.862 160.5L18.562 158.74C19.7754 159.473 21.0287 159.84 22.322 159.84C24.0554 159.84 24.922 158.987 24.922 157.28V156C24.6287 156.547 24.202 156.973 23.642 157.28C23.082 157.573 22.442 157.72 21.722 157.72C20.8687 157.72 20.1087 157.52 19.442 157.12C18.7887 156.707 18.2754 156.133 17.902 155.4C17.5287 154.667 17.342 153.82 17.342 152.86C17.342 151.9 17.522 151.053 17.882 150.32C18.2554 149.573 18.7754 149 19.442 148.6C20.1087 148.187 20.8687 147.98 21.722 147.98C22.442 147.98 23.082 148.133 23.642 148.44C24.202 148.733 24.6287 149.153 24.922 149.7V148.22H27.402ZM22.382 155.78C23.182 155.78 23.802 155.52 24.242 155C24.6954 154.48 24.922 153.767 24.922 152.86C24.922 151.94 24.6954 151.22 24.242 150.7C23.802 150.18 23.182 149.92 22.382 149.92C21.5954 149.92 20.9754 150.18 20.522 150.7C20.0687 151.22 19.842 151.94 19.842 152.86C19.842 153.753 20.0687 154.467 20.522 155C20.9754 155.52 21.5954 155.78 22.382 155.78ZM34.4514 158.16C33.4514 158.16 32.5714 157.953 31.8114 157.54C31.0647 157.127 30.4847 156.533 30.0714 155.76C29.6581 154.987 29.4514 154.087 29.4514 153.06C29.4514 152.033 29.6581 151.14 30.0714 150.38C30.4847 149.607 31.0647 149.013 31.8114 148.6C32.5714 148.187 33.4514 147.98 34.4514 147.98C35.4514 147.98 36.3247 148.187 37.0714 148.6C37.8314 149.013 38.4114 149.607 38.8114 150.38C39.2247 151.14 39.4314 152.033 39.4314 153.06C39.4314 154.087 39.2247 154.987 38.8114 155.76C38.4114 156.533 37.8314 157.127 37.0714 157.54C36.3247 157.953 35.4514 158.16 34.4514 158.16ZM34.4314 156.22C35.2447 156.22 35.8647 155.953 36.2914 155.42C36.7181 154.887 36.9314 154.1 36.9314 153.06C36.9314 152.033 36.7181 151.253 36.2914 150.72C35.8647 150.173 35.2514 149.9 34.4514 149.9C33.6514 149.9 33.0314 150.173 32.5914 150.72C32.1647 151.253 31.9514 152.033 31.9514 153.06C31.9514 154.1 32.1647 154.887 32.5914 155.42C33.0181 155.953 33.6314 156.22 34.4314 156.22ZM41.8483 153.64V151.66H47.8083V153.64H41.8483ZM56.9002 150.06L55.4402 150.2C53.7868 150.373 52.9602 151.213 52.9602 152.72V158H50.4602V148.22H52.8402V149.94C53.3468 148.767 54.3935 148.127 55.9802 148.02L56.7402 147.96L56.9002 150.06ZM67.3611 143.9V158H64.8811V156.42C64.5878 156.967 64.1611 157.393 63.6011 157.7C63.0544 158.007 62.4278 158.16 61.7211 158.16C60.8811 158.16 60.1278 157.947 59.4611 157.52C58.8078 157.093 58.2944 156.493 57.9211 155.72C57.5611 154.933 57.3811 154.033 57.3811 153.02C57.3811 152.007 57.5611 151.12 57.9211 150.36C58.2944 149.6 58.8078 149.013 59.4611 148.6C60.1144 148.187 60.8678 147.98 61.7211 147.98C62.4278 147.98 63.0544 148.127 63.6011 148.42C64.1478 148.713 64.5678 149.127 64.8611 149.66V143.9H67.3611ZM62.3811 156.22C63.1811 156.22 63.7944 155.947 64.2211 155.4C64.6611 154.853 64.8811 154.073 64.8811 153.06C64.8811 152.047 64.6611 151.273 64.2211 150.74C63.7944 150.193 63.1878 149.92 62.4011 149.92C61.6011 149.92 60.9811 150.187 60.5411 150.72C60.1011 151.253 59.8811 152.02 59.8811 153.02C59.8811 154.033 60.1011 154.82 60.5411 155.38C60.9811 155.94 61.5944 156.22 62.3811 156.22ZM69.9928 153.64V151.66H75.9528V153.64H69.9928ZM82.3414 158.16C81.4747 158.16 80.6747 158.053 79.9414 157.84C79.2214 157.627 78.6081 157.32 78.1014 156.92L78.8014 155.18C79.8414 155.94 81.0347 156.32 82.3814 156.32C82.9547 156.32 83.3881 156.227 83.6814 156.04C83.9881 155.853 84.1414 155.587 84.1414 155.24C84.1414 154.947 84.0347 154.72 83.8214 154.56C83.6214 154.4 83.2547 154.253 82.7214 154.12L81.1214 153.76C80.2147 153.56 79.5414 153.233 79.1014 152.78C78.6614 152.327 78.4414 151.74 78.4414 151.02C78.4414 150.42 78.6081 149.893 78.9414 149.44C79.2881 148.973 79.7614 148.613 80.3614 148.36C80.9747 148.107 81.6814 147.98 82.4814 147.98C83.1747 147.98 83.8414 148.087 84.4814 148.3C85.1347 148.513 85.7081 148.813 86.2014 149.2L85.5014 150.9C84.4881 150.167 83.4747 149.8 82.4614 149.8C81.9147 149.8 81.4881 149.9 81.1814 150.1C80.8747 150.3 80.7214 150.58 80.7214 150.94C80.7214 151.207 80.8147 151.427 81.0014 151.6C81.2014 151.773 81.5147 151.907 81.9414 152L83.6014 152.38C84.5747 152.593 85.2881 152.933 85.7414 153.4C86.1947 153.853 86.4214 154.453 86.4214 155.2C86.4214 156.107 86.0547 156.827 85.3214 157.36C84.5881 157.893 83.5947 158.16 82.3414 158.16ZM93.3508 156.28C93.6441 156.28 93.9508 156.26 94.2708 156.22L94.1508 158.08C93.7508 158.12 93.3841 158.14 93.0508 158.14C91.6774 158.14 90.6641 157.827 90.0108 157.2C89.3574 156.56 89.0308 155.613 89.0308 154.36V150.1H87.1508V148.22H89.0308V145.3H91.5308V148.22H94.1108V150.1H91.5308V154.32C91.5308 155.627 92.1374 156.28 93.3508 156.28ZM99.9336 147.98C101.307 147.98 102.327 148.313 102.994 148.98C103.66 149.647 103.994 150.673 103.994 152.06V158H101.614V156.5C101.387 157.02 101.027 157.427 100.534 157.72C100.054 158.013 99.4936 158.16 98.8536 158.16C98.2003 158.16 97.6069 158.027 97.0736 157.76C96.5403 157.493 96.1203 157.127 95.8136 156.66C95.5069 156.193 95.3536 155.673 95.3536 155.1C95.3536 154.38 95.5336 153.813 95.8936 153.4C96.2669 152.987 96.8669 152.687 97.6936 152.5C98.5203 152.313 99.6603 152.22 101.114 152.22H101.614V151.76C101.614 151.093 101.467 150.613 101.174 150.32C100.894 150.027 100.42 149.88 99.7536 149.88C99.2336 149.88 98.6869 149.973 98.1136 150.16C97.5536 150.333 97.0003 150.58 96.4536 150.9L95.7536 149.18C96.3003 148.833 96.9603 148.547 97.7336 148.32C98.5069 148.093 99.2403 147.98 99.9336 147.98ZM99.3536 156.36C100.02 156.36 100.56 156.14 100.974 155.7C101.4 155.247 101.614 154.667 101.614 153.96V153.54H101.254C100.36 153.54 99.6669 153.58 99.1736 153.66C98.6803 153.74 98.3269 153.88 98.1136 154.08C97.9003 154.28 97.7936 154.553 97.7936 154.9C97.7936 155.327 97.9403 155.68 98.2336 155.96C98.5269 156.227 98.9003 156.36 99.3536 156.36ZM111.534 156.28C111.828 156.28 112.134 156.26 112.454 156.22L112.334 158.08C111.934 158.12 111.568 158.14 111.234 158.14C109.861 158.14 108.848 157.827 108.194 157.2C107.541 156.56 107.214 155.613 107.214 154.36V150.1H105.334V148.22H107.214V145.3H109.714V148.22H112.294V150.1H109.714V154.32C109.714 155.627 110.321 156.28 111.534 156.28ZM113.917 158V148.22H116.417V158H113.917ZM113.777 143.68H116.537V146.14H113.777V143.68ZM123.455 158.16C122.455 158.16 121.575 157.953 120.815 157.54C120.069 157.127 119.489 156.533 119.075 155.76C118.662 154.987 118.455 154.087 118.455 153.06C118.455 152.033 118.662 151.14 119.075 150.38C119.489 149.607 120.069 149.013 120.815 148.6C121.575 148.187 122.455 147.98 123.455 147.98C124.455 147.98 125.329 148.187 126.075 148.6C126.835 149.013 127.415 149.607 127.815 150.38C128.229 151.14 128.435 152.033 128.435 153.06C128.435 154.087 128.229 154.987 127.815 155.76C127.415 156.533 126.835 157.127 126.075 157.54C125.329 157.953 124.455 158.16 123.455 158.16ZM123.435 156.22C124.249 156.22 124.869 155.953 125.295 155.42C125.722 154.887 125.935 154.1 125.935 153.06C125.935 152.033 125.722 151.253 125.295 150.72C124.869 150.173 124.255 149.9 123.455 149.9C122.655 149.9 122.035 150.173 121.595 150.72C121.169 151.253 120.955 152.033 120.955 153.06C120.955 154.1 121.169 154.887 121.595 155.42C122.022 155.953 122.635 156.22 123.435 156.22ZM136.179 147.98C137.353 147.98 138.226 148.313 138.799 148.98C139.373 149.647 139.659 150.653 139.659 152V158H137.159V152.14C137.159 151.38 137.013 150.827 136.719 150.48C136.439 150.133 135.993 149.96 135.379 149.96C134.659 149.96 134.079 150.187 133.639 150.64C133.213 151.093 132.999 151.7 132.999 152.46V158H130.499V148.22H132.939V149.68C133.273 149.133 133.719 148.713 134.279 148.42C134.839 148.127 135.473 147.98 136.179 147.98ZM142.258 153.64V151.66H148.218V153.64H142.258ZM156.49 147.98C157.344 147.98 158.097 148.187 158.75 148.6C159.404 149.013 159.91 149.6 160.27 150.36C160.644 151.12 160.83 152.007 160.83 153.02C160.83 154.033 160.644 154.933 160.27 155.72C159.91 156.493 159.397 157.093 158.73 157.52C158.077 157.947 157.33 158.16 156.49 158.16C155.784 158.16 155.15 158.007 154.59 157.7C154.044 157.393 153.624 156.967 153.33 156.42V158H150.87V143.9H153.37V149.64C153.664 149.107 154.084 148.7 154.63 148.42C155.177 148.127 155.797 147.98 156.49 147.98ZM155.83 156.22C156.617 156.22 157.23 155.94 157.67 155.38C158.11 154.82 158.33 154.033 158.33 153.02C158.33 152.02 158.11 151.253 157.67 150.72C157.244 150.187 156.63 149.92 155.83 149.92C155.03 149.92 154.41 150.193 153.97 150.74C153.544 151.273 153.33 152.047 153.33 153.06C153.33 154.073 153.544 154.853 153.97 155.4C154.41 155.947 155.03 156.22 155.83 156.22ZM175.926 148.22H178.366L174.526 158H172.346L169.946 151.7L167.606 158H165.446L161.586 148.22H164.146L166.646 155.02L169.146 148.22H170.946L173.446 155.06L175.926 148.22ZM178.873 155.24H181.673V158H178.873V155.24ZM187.693 158.16C186.826 158.16 186.026 158.053 185.293 157.84C184.573 157.627 183.96 157.32 183.453 156.92L184.153 155.18C185.193 155.94 186.386 156.32 187.733 156.32C188.306 156.32 188.74 156.227 189.033 156.04C189.34 155.853 189.493 155.587 189.493 155.24C189.493 154.947 189.386 154.72 189.173 154.56C188.973 154.4 188.606 154.253 188.073 154.12L186.473 153.76C185.566 153.56 184.893 153.233 184.453 152.78C184.013 152.327 183.793 151.74 183.793 151.02C183.793 150.42 183.96 149.893 184.293 149.44C184.64 148.973 185.113 148.613 185.713 148.36C186.326 148.107 187.033 147.98 187.833 147.98C188.526 147.98 189.193 148.087 189.833 148.3C190.486 148.513 191.06 148.813 191.553 149.2L190.853 150.9C189.84 150.167 188.826 149.8 187.813 149.8C187.266 149.8 186.84 149.9 186.533 150.1C186.226 150.3 186.073 150.58 186.073 150.94C186.073 151.207 186.166 151.427 186.353 151.6C186.553 151.773 186.866 151.907 187.293 152L188.953 152.38C189.926 152.593 190.64 152.933 191.093 153.4C191.546 153.853 191.773 154.453 191.773 155.2C191.773 156.107 191.406 156.827 190.673 157.36C189.94 157.893 188.946 158.16 187.693 158.16ZM200.523 148.24H202.983L198.703 158H196.523L192.283 148.24H194.923L197.683 155.14L200.523 148.24ZM213.554 148.22V157.1C213.554 158.633 213.128 159.793 212.274 160.58C211.434 161.367 210.188 161.76 208.534 161.76C207.681 161.76 206.861 161.647 206.074 161.42C205.288 161.207 204.601 160.9 204.014 160.5L204.714 158.74C205.928 159.473 207.181 159.84 208.474 159.84C210.208 159.84 211.074 158.987 211.074 157.28V156C210.781 156.547 210.354 156.973 209.794 157.28C209.234 157.573 208.594 157.72 207.874 157.72C207.021 157.72 206.261 157.52 205.594 157.12C204.941 156.707 204.428 156.133 204.054 155.4C203.681 154.667 203.494 153.82 203.494 152.86C203.494 151.9 203.674 151.053 204.034 150.32C204.408 149.573 204.928 149 205.594 148.6C206.261 148.187 207.021 147.98 207.874 147.98C208.594 147.98 209.234 148.133 209.794 148.44C210.354 148.733 210.781 149.153 211.074 149.7V148.22H213.554ZM208.534 155.78C209.334 155.78 209.954 155.52 210.394 155C210.848 154.48 211.074 153.767 211.074 152.86C211.074 151.94 210.848 151.22 210.394 150.7C209.954 150.18 209.334 149.92 208.534 149.92C207.748 149.92 207.128 150.18 206.674 150.7C206.221 151.22 205.994 151.94 205.994 152.86C205.994 153.753 206.221 154.467 206.674 155C207.128 155.52 207.748 155.78 208.534 155.78Z" fill="#212429"/>
<path d="M481.438 25.502H492.983L513.451 59.2215H514.2L513.451 53.2451V25.502H522V70.4823H510.456L489.988 36.7628H489.239L489.988 42.7392V70.4823H481.438V25.502Z" fill="black"/>
<path d="M448.365 24C462.842 24 473.264 34.5059 473.264 47.9685C473.264 61.4312 462.842 71.9371 448.365 71.9371C433.888 71.9371 423.466 61.4312 423.466 47.9685C423.466 34.5059 433.825 24 448.365 24ZM448.365 63.6959C457.663 63.6959 464.34 56.9646 464.34 47.9685C464.34 38.9725 457.663 32.2412 448.365 32.2412C439.067 32.2412 432.39 38.9725 432.39 47.9685C432.39 56.9646 439.067 63.6959 448.365 63.6959Z" fill="black"/>
<path d="M406.68 25.502H415.229V70.4823H406.68V25.502Z" fill="black"/>
<path d="M360.189 25.502H400.751V33.7431H384.776V70.4823H376.227V33.7431H360.189V25.502Z" fill="black"/>
<path d="M328.551 25.502H348.77L361.313 70.4823H352.763L349.768 59.5989H327.428L324.432 70.4823H315.883L328.551 25.502ZM347.584 51.4207L342.779 33.806H334.604L329.799 51.4207H347.584Z" fill="black"/>
<path d="M276.57 25.502H317.132V33.7431H301.157V70.4823H292.607V33.7431H276.57V25.502Z" fill="black"/>
<path d="M243.433 57.0275C243.808 58.3486 244.494 59.6068 245.43 60.6134C247.115 62.4377 249.923 64.1363 254.978 64.1363C262.404 64.1363 265.399 61.1166 265.399 58.1599C265.399 53.3788 258.161 52.2464 250.922 50.6736C243.621 49.1009 236.444 46.0183 236.444 37.5256C236.444 30.4168 242.747 24 254.666 24C263.028 24 267.833 27.3971 270.579 30.7313C272.201 32.7444 273.324 35.0092 274.011 37.4626H265.087C264.713 36.519 264.151 35.5124 263.215 34.6946C261.718 33.2477 259.097 31.8637 254.666 31.8637C247.926 31.8637 245.368 34.1284 245.368 37.0852C245.368 40.4823 249.487 42.055 254.541 43.0616C263.09 44.7602 274.385 46.8991 274.385 57.6566C274.385 65.1428 267.771 71.8742 255.04 71.8742C245.618 71.8742 240.313 68.2254 237.505 64.3879C235.883 62.1861 234.759 59.6697 234.26 56.9017H243.433V57.0275Z" fill="black"/>
<path d="M218.036 47.9685C218.036 34.0655 206.866 24 191.39 24H171.483V72H191.39C206.803 71.9371 218.036 61.8716 218.036 47.9685ZM185.649 59.7955V36.1415H191.015C198.441 36.1415 203.122 40.671 203.122 47.9685C203.122 55.2661 198.504 59.7955 191.015 59.7955H185.649Z" fill="black"/>
<path d="M155.82 55.0144C157.318 54.3224 158.691 53.2529 159.939 51.9318C162.747 49.038 164.12 45.4522 164.12 41.2372C164.12 31.0459 156.195 24 144.9 24H119.314V72H133.48V58.1599H142.154L149.892 72H164.182L154.946 55.4548L155.82 55.0144ZM143.527 46.6474H133.542V35.7641H143.527C147.021 35.7641 149.642 38.0917 149.642 41.1743C149.642 44.3198 147.021 46.6474 143.527 46.6474Z" fill="black"/>
<path d="M47.707 69.6478L95.4514 87.4158V71.4846L47.707 53.7166L0 71.4846V87.4158L47.707 69.6478Z" fill="black"/>
<path d="M47.707 69.6479L0 87.4159L17.708 96L47.707 84.8294L77.7434 96L95.4514 87.4159L47.707 69.6479Z" fill="white"/>
<path d="M47.707 26.3523L0 8.58411V24.5154L47.707 42.2836L95.4514 24.5154V8.58411L47.707 26.3523Z" fill="black"/>
<path d="M47.707 26.3523L95.4514 8.58411L77.7434 0L47.707 11.1707L17.708 0L0 8.58411L47.707 26.3523Z" fill="white"/>
</svg>
