<svg width="488" height="40" viewBox="0 0 488 40" fill="none" xmlns="http://www.w3.org/2000/svg">
<path d="M19.9922 29.0201L40 36.4235V29.7854L19.9922 22.3821L0 29.7854V36.4235L19.9922 29.0201Z" fill="black"/>
<path d="M19.9922 29.0201L0 36.4235L7.42074 40.0002L19.9922 35.3458L32.5793 40.0002L40 36.4235L19.9922 29.0201Z" fill="#19C1CE"/>
<path d="M19.9922 10.9803L0 3.5769V10.2149L19.9922 17.6183L40 10.2149V3.5769L19.9922 10.9803Z" fill="black"/>
<path d="M19.9922 10.9803L40 3.57689L32.5793 0.000183105L19.9922 4.65466L7.42074 0.000183105L0 3.57689L19.9922 10.9803Z" fill="#19C1CE"/>
<g clip-path="url(#clip0_1592_2902)">
<path d="M128.646 8.9237C129.936 7.56343 131.732 6.71982 133.718 6.71982C136.358 6.71982 138.662 8.20983 139.889 10.4218C140.955 9.93973 142.135 9.67159 143.377 9.67159C148.139 9.67159 152 13.6129 152 18.4744C152 23.3366 148.139 27.2779 143.377 27.2779C142.795 27.2779 142.227 27.219 141.678 27.1066C140.598 29.0568 138.539 30.3744 136.176 30.3744C135.187 30.3744 134.251 30.1431 133.418 29.732C132.323 32.339 129.772 34.1669 126.798 34.1669C123.701 34.1669 121.062 32.1838 120.048 29.4027C119.606 29.4979 119.147 29.5475 118.676 29.5475C114.989 29.5475 112 26.4913 112 22.7207C112 20.194 113.343 17.9878 115.338 16.8074C114.928 15.8508 114.699 14.795 114.699 13.6849C114.699 9.34868 118.178 5.83354 122.468 5.83354C124.987 5.83354 127.226 7.04561 128.646 8.9237Z" fill="#00A1E0"/>
<path d="M117.794 20.5264C117.769 20.5927 117.803 20.6066 117.811 20.6181C117.886 20.6735 117.962 20.7132 118.039 20.7576C118.447 20.9768 118.832 21.0408 119.235 21.0408C120.056 21.0408 120.565 20.5991 120.565 19.8881V19.8742C120.565 19.2169 119.99 18.9782 119.451 18.8058L119.381 18.7827C118.974 18.6489 118.623 18.5336 118.623 18.2626V18.2481C118.623 18.0163 118.828 17.8457 119.146 17.8457C119.499 17.8457 119.918 17.9644 120.189 18.1155C120.189 18.1155 120.268 18.1674 120.297 18.0896C120.313 18.0481 120.45 17.6756 120.464 17.6352C120.479 17.5914 120.452 17.5591 120.424 17.5418C120.116 17.3521 119.689 17.2223 119.248 17.2223L119.166 17.2229C118.415 17.2229 117.891 17.6819 117.891 18.3398V18.3537C117.891 19.0474 118.469 19.2722 119.011 19.4291L119.099 19.4562C119.493 19.579 119.834 19.6845 119.834 19.9659V19.9798C119.834 20.2369 119.613 20.4284 119.256 20.4284C119.117 20.4284 118.676 20.4255 118.199 20.1205C118.141 20.0864 118.108 20.0617 118.063 20.0346C118.04 20.0196 117.981 19.9936 117.956 20.072L117.794 20.5264Z" fill="white"/>
<path d="M129.805 20.5264C129.78 20.5927 129.815 20.6066 129.823 20.6181C129.898 20.6735 129.974 20.7132 130.051 20.7576C130.459 20.9768 130.844 21.0408 131.247 21.0408C132.068 21.0408 132.577 20.5991 132.577 19.8881V19.8742C132.577 19.2169 132.002 18.9782 131.462 18.8058L131.392 18.7827C130.985 18.6489 130.634 18.5336 130.634 18.2626V18.2481C130.634 18.0163 130.84 17.8457 131.158 17.8457C131.511 17.8457 131.93 17.9644 132.2 18.1155C132.2 18.1155 132.28 18.1674 132.309 18.0896C132.325 18.0481 132.461 17.6756 132.476 17.6352C132.491 17.5914 132.464 17.5591 132.436 17.5418C132.127 17.3521 131.701 17.2223 131.26 17.2223L131.178 17.2229C130.427 17.2229 129.903 17.6819 129.903 18.3398V18.3537C129.903 19.0474 130.481 19.2722 131.023 19.4291L131.11 19.4562C131.505 19.579 131.846 19.6845 131.846 19.9659V19.9798C131.846 20.2369 131.624 20.4284 131.268 20.4284C131.129 20.4284 130.687 20.4255 130.211 20.1205C130.153 20.0864 130.119 20.0628 130.076 20.0346C130.061 20.0247 129.991 19.9976 129.967 20.072L129.805 20.5264Z" fill="white"/>
<path d="M138.006 19.1338C138.006 19.5357 137.932 19.8523 137.786 20.076C137.642 20.2975 137.424 20.4053 137.119 20.4053C136.814 20.4053 136.597 20.298 136.455 20.076C136.312 19.8529 136.239 19.5357 136.239 19.1338C136.239 18.7325 136.312 18.4165 136.455 18.1951C136.597 17.9759 136.814 17.8693 137.119 17.8693C137.424 17.8693 137.642 17.9759 137.786 18.1951C137.932 18.4165 138.006 18.7325 138.006 19.1338ZM138.691 18.3888C138.624 18.1587 138.519 17.9558 138.379 17.7868C138.239 17.6173 138.063 17.4812 137.853 17.382C137.644 17.2834 137.397 17.2332 137.119 17.2332C136.841 17.2332 136.594 17.2834 136.385 17.382C136.175 17.4812 135.998 17.6173 135.858 17.7868C135.719 17.9563 135.614 18.1593 135.547 18.3888C135.48 18.6177 135.446 18.868 135.446 19.1338C135.446 19.3996 135.48 19.6505 135.547 19.8788C135.614 20.1083 135.719 20.3113 135.859 20.4808C135.998 20.6503 136.176 20.7859 136.385 20.8822C136.594 20.9785 136.841 21.0275 137.119 21.0275C137.397 21.0275 137.643 20.9785 137.853 20.8822C138.062 20.7859 138.239 20.6503 138.379 20.4808C138.519 20.3119 138.624 20.1089 138.691 19.8788C138.758 19.6499 138.792 19.3991 138.792 19.1338C138.792 18.8686 138.758 18.6177 138.691 18.3888Z" fill="white"/>
<path d="M144.315 20.298C144.292 20.2305 144.228 20.2559 144.228 20.2559C144.128 20.2945 144.022 20.3303 143.909 20.3482C143.795 20.366 143.669 20.3753 143.534 20.3753C143.202 20.3753 142.939 20.2755 142.75 20.0783C142.561 19.8811 142.455 19.5622 142.456 19.1309C142.457 18.7382 142.551 18.443 142.719 18.2181C142.886 17.9943 143.14 17.8796 143.479 17.8796C143.762 17.8796 143.977 17.9125 144.203 17.9845C144.203 17.9845 144.257 18.0082 144.282 17.9367C144.342 17.7683 144.387 17.6478 144.45 17.4627C144.469 17.4102 144.424 17.3877 144.408 17.3814C144.319 17.3462 144.11 17.2891 143.951 17.2649C143.803 17.2418 143.63 17.2297 143.437 17.2297C143.15 17.2297 142.893 17.2793 142.674 17.3785C142.455 17.4771 142.269 17.6132 142.122 17.7827C141.975 17.9523 141.864 18.1552 141.789 18.3847C141.715 18.6136 141.677 18.8651 141.677 19.1309C141.677 19.7058 141.831 20.1706 142.133 20.5108C142.436 20.8521 142.891 21.0257 143.485 21.0257C143.836 21.0257 144.196 20.9536 144.455 20.8504C144.455 20.8504 144.505 20.8262 144.483 20.7679L144.315 20.298Z" fill="white"/>
<path d="M145.513 18.7488C145.546 18.5256 145.607 18.3399 145.701 18.1952C145.843 17.9755 146.059 17.855 146.364 17.855C146.668 17.855 146.869 17.9761 147.013 18.1952C147.109 18.3399 147.15 18.5337 147.167 18.7488H145.513ZM147.819 18.2581C147.761 18.0361 147.617 17.8117 147.522 17.7091C147.373 17.5465 147.227 17.4329 147.083 17.3695C146.893 17.2876 146.667 17.2334 146.418 17.2334C146.129 17.2334 145.866 17.2824 145.653 17.3839C145.439 17.4854 145.26 17.6238 145.119 17.7962C144.978 17.968 144.872 18.1727 144.805 18.4051C144.737 18.6363 144.703 18.8883 144.703 19.1541C144.703 19.4246 144.738 19.6766 144.809 19.9032C144.879 20.1315 144.992 20.3328 145.145 20.4994C145.297 20.6672 145.493 20.7987 145.728 20.8904C145.961 20.9815 146.244 21.0288 146.569 21.0282C147.239 21.0259 147.591 20.8748 147.737 20.7935C147.762 20.7791 147.787 20.7537 147.756 20.6811L147.605 20.2515C147.582 20.1875 147.517 20.2111 147.517 20.2111C147.352 20.2734 147.116 20.3852 146.566 20.3841C146.206 20.3835 145.94 20.2763 145.773 20.1085C145.601 19.9366 145.517 19.6841 145.503 19.3277L147.821 19.33C147.821 19.33 147.882 19.3289 147.888 19.2689C147.891 19.2435 147.968 18.7868 147.819 18.2581Z" fill="white"/>
<path d="M126.946 18.7488C126.979 18.5256 127.039 18.3399 127.133 18.1952C127.275 17.9755 127.491 17.855 127.796 17.855C128.1 17.855 128.301 17.9761 128.446 18.1952C128.541 18.3399 128.583 18.5337 128.599 18.7488H126.946ZM129.251 18.2581C129.193 18.0361 129.049 17.8117 128.955 17.7091C128.805 17.5465 128.659 17.4329 128.515 17.3695C128.326 17.2876 128.099 17.2334 127.85 17.2334C127.561 17.2334 127.298 17.2824 127.085 17.3839C126.871 17.4854 126.692 17.6238 126.551 17.7962C126.41 17.968 126.304 18.1727 126.237 18.4051C126.17 18.6363 126.135 18.8883 126.135 19.1541C126.135 19.4246 126.171 19.6766 126.241 19.9032C126.311 20.1315 126.424 20.3328 126.577 20.4994C126.729 20.6672 126.925 20.7987 127.16 20.8904C127.393 20.9815 127.676 21.0288 128.001 21.0282C128.671 21.0259 129.024 20.8748 129.169 20.7935C129.195 20.7791 129.219 20.7537 129.188 20.6811L129.037 20.2515C129.014 20.1875 128.949 20.2111 128.949 20.2111C128.784 20.2734 128.548 20.3852 127.997 20.3841C127.638 20.3835 127.372 20.2763 127.205 20.1085C127.033 19.9366 126.949 19.6841 126.935 19.3277L129.253 19.33C129.253 19.33 129.314 19.3289 129.32 19.2689C129.323 19.2435 129.4 18.7868 129.251 18.2581Z" fill="white"/>
<path d="M121.934 20.2851C121.843 20.2118 121.831 20.1934 121.8 20.1461C121.754 20.074 121.731 19.9714 121.731 19.8411C121.731 19.6346 121.798 19.4864 121.938 19.3867C121.936 19.3873 122.137 19.2108 122.61 19.2171C122.942 19.2218 123.239 19.2714 123.239 19.2714V20.3381H123.24C123.24 20.3381 122.945 20.4021 122.614 20.4223C122.142 20.4511 121.932 20.2845 121.934 20.2851ZM122.856 18.6365C122.762 18.6296 122.64 18.6255 122.495 18.6255C122.296 18.6255 122.104 18.6509 121.924 18.6999C121.742 18.7489 121.579 18.8256 121.439 18.9271C121.299 19.0292 121.185 19.1595 121.103 19.314C121.021 19.4686 120.979 19.6508 120.979 19.8549C120.979 20.0625 121.015 20.243 121.085 20.3906C121.156 20.5388 121.258 20.6622 121.388 20.7573C121.517 20.8525 121.676 20.9222 121.86 20.9643C122.042 21.0064 122.248 21.0278 122.474 21.0278C122.712 21.0278 122.949 21.0082 123.178 20.9684C123.406 20.9292 123.685 20.8721 123.762 20.8542C123.839 20.8358 123.925 20.8121 123.925 20.8121C123.982 20.7977 123.978 20.7354 123.978 20.7354L123.977 18.5898C123.977 18.1192 123.852 17.7704 123.608 17.5541C123.365 17.3385 123.006 17.2295 122.543 17.2295C122.369 17.2295 122.089 17.2537 121.922 17.2877C121.922 17.2877 121.415 17.3869 121.207 17.5518C121.207 17.5518 121.161 17.5807 121.186 17.6452L121.35 18.0916C121.371 18.1492 121.426 18.1296 121.426 18.1296C121.426 18.1296 121.444 18.1227 121.464 18.1106C121.911 17.8649 122.475 17.8724 122.475 17.8724C122.725 17.8724 122.918 17.9232 123.048 18.0241C123.174 18.1221 123.239 18.2703 123.239 18.5829V18.682C123.039 18.6532 122.856 18.6365 122.856 18.6365Z" fill="white"/>
<path d="M141.556 17.4275C141.574 17.3745 141.537 17.3491 141.522 17.3433C141.482 17.3277 141.285 17.2857 141.133 17.2758C140.842 17.258 140.68 17.3076 140.535 17.3733C140.392 17.439 140.232 17.5451 140.143 17.6657V17.3802C140.143 17.3404 140.115 17.3087 140.076 17.3087H139.482C139.443 17.3087 139.416 17.3404 139.416 17.3802V20.8798C139.416 20.919 139.447 20.9513 139.486 20.9513H140.095C140.134 20.9513 140.165 20.919 140.165 20.8798V19.1314C140.165 18.8968 140.191 18.6626 140.242 18.5156C140.292 18.3703 140.361 18.2538 140.445 18.1702C140.53 18.0872 140.626 18.0289 140.732 17.9961C140.839 17.9626 140.959 17.9517 141.043 17.9517C141.164 17.9517 141.298 17.9834 141.298 17.9834C141.342 17.9886 141.367 17.9609 141.382 17.9199C141.422 17.8127 141.535 17.4915 141.556 17.4275Z" fill="white"/>
<path d="M135.839 15.8056C135.765 15.7825 135.697 15.7669 135.61 15.7502C135.521 15.7341 135.415 15.726 135.294 15.726C134.875 15.726 134.545 15.8459 134.313 16.0823C134.082 16.3176 133.925 16.6757 133.847 17.1468L133.818 17.3054H133.292C133.292 17.3054 133.228 17.3031 133.214 17.3734L133.128 17.8618C133.122 17.908 133.142 17.9374 133.203 17.9374H133.716L133.196 20.8736C133.155 21.11 133.109 21.3043 133.057 21.4519C133.006 21.5972 132.957 21.7062 132.895 21.7858C132.836 21.8619 132.78 21.9184 132.683 21.9513C132.603 21.9784 132.511 21.9911 132.41 21.9911C132.354 21.9911 132.28 21.9819 132.224 21.9703C132.17 21.9594 132.141 21.9473 132.099 21.9294C132.099 21.9294 132.039 21.9063 132.015 21.9669C131.996 22.017 131.86 22.397 131.843 22.4437C131.827 22.4904 131.85 22.5268 131.879 22.5377C131.947 22.5619 131.998 22.5781 132.091 22.6006C132.22 22.6311 132.329 22.6329 132.431 22.6329C132.644 22.6329 132.839 22.6023 133 22.5435C133.162 22.4841 133.303 22.3809 133.428 22.2413C133.563 22.0903 133.648 21.9323 133.729 21.716C133.81 21.5027 133.878 21.2374 133.933 20.9284L134.456 17.9374H135.219C135.219 17.9374 135.284 17.9397 135.297 17.8688L135.383 17.3809C135.389 17.3342 135.37 17.3054 135.308 17.3054H134.566C134.57 17.2887 134.604 17.0246 134.689 16.776C134.725 16.6705 134.794 16.5846 134.851 16.5258C134.908 16.4681 134.974 16.4272 135.045 16.4035C135.119 16.3793 135.203 16.3678 135.294 16.3678C135.364 16.3678 135.433 16.3759 135.485 16.3868C135.557 16.4024 135.584 16.4105 135.603 16.4162C135.679 16.4393 135.689 16.4168 135.704 16.3799L135.881 15.8874C135.9 15.8344 135.855 15.8119 135.839 15.8056Z" fill="white"/>
<path d="M125.481 20.88C125.481 20.9192 125.453 20.9509 125.414 20.9509H124.8C124.761 20.9509 124.734 20.9192 124.734 20.88V15.8725C124.734 15.8333 124.761 15.8016 124.8 15.8016H125.414C125.453 15.8016 125.481 15.8333 125.481 15.8725V20.88Z" fill="white"/>
</g>
<path d="M264 20.4446C264 18.8002 263.864 17.6002 263.569 16.3558H244.408V23.7779H255.655C255.429 25.6224 254.204 28.4002 251.483 30.2668L251.445 30.5153L257.503 35.1147L257.923 35.1558C261.778 31.6668 264 26.5335 264 20.4446Z" fill="#4285F4"/>
<path d="M244.408 40.0003C249.918 40.0003 254.544 38.2224 257.923 35.1559L251.483 30.2669C249.76 31.4447 247.447 32.2669 244.408 32.2669C239.011 32.2669 234.431 28.7781 232.798 23.9559L232.559 23.9758L226.259 28.7536L226.177 28.978C229.533 35.5113 236.426 40.0003 244.408 40.0003Z" fill="#34A853"/>
<path d="M232.798 23.9552C232.367 22.7108 232.118 21.3774 232.118 19.9996C232.118 18.6218 232.367 17.2885 232.775 16.0441L232.764 15.779L226.386 10.9245L226.177 11.0218C224.794 13.7329 224 16.7774 224 19.9996C224 23.2219 224.794 26.2662 226.177 28.9774L232.798 23.9552Z" fill="#FBBC05"/>
<path d="M244.408 7.73328C248.24 7.73328 250.825 9.3555 252.299 10.7111L258.059 5.2C254.522 1.97779 249.918 0 244.408 0C236.426 0 229.533 4.48885 226.177 11.0221L232.775 16.0444C234.431 11.2222 239.011 7.73328 244.408 7.73328Z" fill="#EB4335"/>
<path d="M376 20.0002C376 8.95448 367.046 0.000183105 356 0.000183105C344.954 0.000183105 336 8.95448 336 20.0002C336 29.9826 343.314 38.2568 352.875 39.7572V25.7814H347.797V20.0002H352.875V15.5939C352.875 10.5814 355.861 7.81268 360.429 7.81268C362.618 7.81268 364.906 8.20331 364.906 8.20331V13.1252H362.384C359.9 13.1252 359.125 14.667 359.125 16.2486V20.0002H364.672L363.785 25.7814H359.125V39.7572C368.686 38.2568 376 29.9826 376 20.0002Z" fill="#1877F2"/>
<path d="M363.785 25.7814L364.672 20.0002H359.125V16.2486C359.125 14.667 359.9 13.1252 362.384 13.1252H364.906V8.20331C364.906 8.20331 362.618 7.81268 360.429 7.81268C355.861 7.81268 352.875 10.5814 352.875 15.5939V20.0002H347.797V25.7814H352.875V39.7572C353.893 39.917 354.937 40.0002 356 40.0002C357.063 40.0002 358.107 39.917 359.125 39.7572V25.7814H363.785Z" fill="white"/>
<g clip-path="url(#clip1_1592_2902)">
<path d="M488 2.91685V37.0835C488 37.8571 487.693 38.5989 487.146 39.1459C486.599 39.6929 485.857 40.0002 485.083 40.0002H450.917C450.143 40.0002 449.401 39.6929 448.854 39.1459C448.307 38.5989 448 37.8571 448 37.0835V2.91685C448 2.1433 448.307 1.40144 448.854 0.854455C449.401 0.307474 450.143 0.000183105 450.917 0.000183105L485.083 0.000183105C485.857 0.000183105 486.599 0.307474 487.146 0.854455C487.693 1.40144 488 2.1433 488 2.91685ZM459.667 15.0002H453.833V34.1668H459.667V15.0002ZM460.167 8.75018C460.175 8.0745 459.983 7.41156 459.614 6.8452C459.245 6.27883 458.717 5.83448 458.096 5.56831C457.475 5.30215 456.789 5.22614 456.125 5.34989C455.46 5.47364 454.848 5.79159 454.364 6.26354C453.88 6.7355 453.548 7.34025 453.408 8.00134C453.268 8.66243 453.327 9.35016 453.578 9.97757C453.829 10.605 454.26 11.1439 454.817 11.5262C455.375 11.9084 456.033 12.1169 456.708 12.1252H456.75C457.188 12.1363 457.623 12.061 458.032 11.9036C458.441 11.7463 458.814 11.5099 459.132 11.2081C459.449 10.9063 459.704 10.5449 459.881 10.1446C460.059 9.74433 460.156 9.31296 460.167 8.87518V8.75018ZM482.167 22.6835C482.167 16.8502 478.308 14.5835 474.958 14.5835C471.608 14.5835 469.125 16.5335 468.575 17.7085H468.5V15.0002H463V34.1668H468.833V24.1668C468.833 21.0918 470.925 19.7252 472.958 19.7252C474.625 19.7252 476.333 21.0085 476.333 24.0918V34.1668H482.167V22.6835Z" fill="#0A66C2"/>
</g>
<defs>
<clipPath id="clip0_1592_2902">
<rect width="40" height="40" fill="white" transform="translate(112 0.000183105)"/>
</clipPath>
<clipPath id="clip1_1592_2902">
<rect width="40" height="40" fill="white" transform="translate(448 0.000183105)"/>
</clipPath>
</defs>
</svg>
