<svg width="448" height="32" viewBox="0 0 448 32" fill="none" xmlns="http://www.w3.org/2000/svg">
<path d="M25.5331 11.5245C25.5483 11.7377 25.5483 11.9509 25.5483 12.1641C25.5483 18.6666 20.5991 26.1591 11.5533 26.1591C8.7665 26.1591 6.17768 25.3519 4 23.951C4.39595 23.9966 4.77663 24.0119 5.18782 24.0119C7.48728 24.0119 9.60407 23.2352 11.2944 21.9103C9.13199 21.8646 7.31979 20.4484 6.69542 18.4991C7.00001 18.5448 7.30456 18.5753 7.62439 18.5753C8.066 18.5753 8.50766 18.5143 8.9188 18.4078C6.66499 17.9509 4.97458 15.9712 4.97458 13.5803V13.5194C5.62938 13.8849 6.39087 14.1134 7.19792 14.1438C5.87304 13.2605 5.00505 11.7529 5.00505 10.0473C5.00505 9.13362 5.24866 8.29605 5.67508 7.56508C8.09642 10.5499 11.736 12.4991 15.8172 12.7123C15.7411 12.3468 15.6954 11.9661 15.6954 11.5854C15.6954 8.87473 17.8883 6.66663 20.6142 6.66663C22.0304 6.66663 23.3096 7.26053 24.2081 8.21993C25.3198 8.00674 26.3858 7.59555 27.33 7.03211C26.9644 8.17427 26.1878 9.13367 25.1675 9.74276C26.1574 9.63622 27.1168 9.36204 28 8.98137C27.3301 9.95595 26.4924 10.8239 25.5331 11.5245V11.5245Z" fill="#212429"/>
<path d="M125.198 17.5L125.865 13.1566H121.697V10.338C121.697 9.14969 122.279 7.99141 124.146 7.99141H126.041V4.29344C126.041 4.29344 124.321 4 122.677 4C119.245 4 117.002 6.08031 117.002 9.84625V13.1566H113.187V17.5H117.002V28H121.697V17.5H125.198Z" fill="#212429"/>
<path d="M218.109 26.6662H213.686V12.4234H218.109V26.6662ZM215.895 10.4805C214.481 10.4805 213.333 9.30909 213.333 7.8948C213.333 7.21547 213.603 6.56396 214.084 6.0836C214.564 5.60324 215.216 5.33337 215.895 5.33337C216.574 5.33337 217.226 5.60324 217.706 6.0836C218.186 6.56396 218.456 7.21547 218.456 7.8948C218.456 9.30909 217.309 10.4805 215.895 10.4805ZM234.662 26.6662H230.249V19.7329C230.249 18.0805 230.215 15.9615 227.949 15.9615C225.65 15.9615 225.297 17.7567 225.297 19.6138V26.6662H220.879V12.4234H225.121V14.3662H225.183C225.773 13.2472 227.216 12.0662 229.368 12.0662C233.844 12.0662 234.667 15.0139 234.667 18.8424V26.6662H234.662Z" fill="#212429"/>
<path d="M327.905 9.61343C324.499 9.61343 321.752 12.3607 321.752 15.7667C321.752 19.1727 324.499 21.92 327.905 21.92C331.311 21.92 334.059 19.1727 334.059 15.7667C334.059 12.3607 331.311 9.61343 327.905 9.61343ZM327.905 19.7672C325.704 19.7672 323.905 17.9731 323.905 15.7667C323.905 13.5603 325.699 11.7663 327.905 11.7663C330.112 11.7663 331.906 13.5603 331.906 15.7667C331.906 17.9731 330.106 19.7672 327.905 19.7672ZM335.745 9.36173C335.745 10.1597 335.103 10.797 334.31 10.797C333.512 10.797 332.875 10.1543 332.875 9.36173C332.875 8.56913 333.518 7.92649 334.31 7.92649C335.103 7.92649 335.745 8.56913 335.745 9.36173ZM339.821 10.8184C339.73 8.89581 339.291 7.19281 337.882 5.78971C336.479 4.38661 334.776 3.94747 332.854 3.85107C330.872 3.73861 324.933 3.73861 322.952 3.85107C321.034 3.94211 319.331 4.38125 317.923 5.78435C316.514 7.18745 316.081 8.89045 315.984 10.813C315.872 12.7945 315.872 18.7336 315.984 20.7151C316.075 22.6376 316.514 24.3406 317.923 25.7437C319.331 27.1468 321.029 27.586 322.952 27.6824C324.933 27.7948 330.872 27.7948 332.854 27.6824C334.776 27.5913 336.479 27.1522 337.882 25.7437C339.285 24.3406 339.725 22.6376 339.821 20.7151C339.933 18.7336 339.933 12.7999 339.821 10.8184ZM337.261 22.8411C336.843 23.8908 336.035 24.6994 334.98 25.1225C333.4 25.7491 329.651 25.6045 327.905 25.6045C326.159 25.6045 322.405 25.7437 320.831 25.1225C319.781 24.7048 318.973 23.8961 318.549 22.8411C317.923 21.2613 318.067 17.5126 318.067 15.7667C318.067 14.0209 317.928 10.2668 318.549 8.69231C318.967 7.64266 319.776 6.834 320.831 6.41093C322.411 5.78435 326.159 5.92895 327.905 5.92895C329.651 5.92895 333.405 5.78971 334.98 6.41093C336.029 6.82864 336.838 7.6373 337.261 8.69231C337.888 10.2721 337.743 14.0209 337.743 15.7667C337.743 17.5126 337.888 21.2667 337.261 22.8411Z" fill="#212429"/>
<path d="M444.776 9.60036C444.469 8.44558 443.566 7.53611 442.418 7.22747C440.339 6.66663 432 6.66663 432 6.66663C432 6.66663 423.661 6.66663 421.581 7.22747C420.434 7.53616 419.53 8.44558 419.224 9.60036C418.667 11.6935 418.667 16.0606 418.667 16.0606C418.667 16.0606 418.667 20.4276 419.224 22.5208C419.53 23.6755 420.434 24.5471 421.581 24.8558C423.661 25.4166 432 25.4166 432 25.4166C432 25.4166 440.339 25.4166 442.418 24.8558C443.566 24.5471 444.469 23.6755 444.776 22.5208C445.333 20.4276 445.333 16.0606 445.333 16.0606C445.333 16.0606 445.333 11.6935 444.776 9.60036ZM429.273 20.0255V12.0956L436.242 16.0607L429.273 20.0255Z" fill="#212429"/>
</svg>
