<?xml version="1.0" encoding="UTF-8"?><svg xmlns="http://www.w3.org/2000/svg" viewBox="0 0 2999.09 1825.53"><defs><style>.cls-1{fill:#f48c7f;}.cls-2{fill:#f7a491;}.cls-3{fill:#fff;}.cls-4{fill:#13375b;}.cls-5{fill:#b75742;}.cls-6{fill:#7f1ca0;}.cls-7{isolation:isolate;}.cls-8{fill:#50bfa5;}.cls-9{fill:#86b1f2;}.cls-10{fill:#355389;}.cls-11{fill:#fae0b2;}.cls-12{fill:#466eb6;}.cls-13{fill:#f7cc7f;}.cls-14{fill:#f47458;}.cls-15{fill:#f79c8d;}.cls-16{fill:#efefef;}.cls-17{fill:#9bc1f9;opacity:.3;}.cls-18{fill:#daeef7;mix-blend-mode:multiply;}.cls-19{fill:#3c8f7c;}.cls-20{fill:#184655;}.cls-21{fill:#042a44;}.cls-22{fill:#07345a;}.cls-23{fill:#327f6b;}</style></defs><g class="cls-7"><g id="Camada_2"><g id="Layer_1"><g><g><path class="cls-17" d="M2770.08,1426.94h-351.24c37.59-34.55,61.56-86.87,61.56-145.43v-43.03c0-124.66,90.63-225.72,202.43-225.72h0c114.6,0,207.51-103.6,207.51-231.39h0c0-127.79-92.9-231.39-207.51-231.39h-34c-111.8,0-202.43-101.06-202.43-225.72h0c0-104.03-75.63-188.36-168.92-188.36H957.63c-103.84,0-188.01,93.86-188.01,209.65h0c0,79.15,39.34,148.05,97.41,183.73h-231.85c-96.69,0-175.07,80.89-175.07,180.67h0c0,119.58-93.93,216.51-209.8,216.51h-35.23c-118.78,0-215.07,99.37-215.07,221.95H0c0,122.58,96.29,221.95,215.07,221.95h0c115.87,0,209.8,96.94,209.8,216.51v41.28c0,99.78,78.38,180.67,175.07,180.67h814.66c6.15,.6,12.37,.91,18.67,.91h1336.79c105.71,0,191.4-85.69,191.4-191.4h0c0-105.71-85.69-191.4-191.4-191.4Z"/><g><path class="cls-12" d="M846.06,1197.2c-5.33-.01-9.67,6.13-9.68,13.73-.02,7.6,4.29,13.76,9.62,13.78s9.67-6.13,9.68-13.73c.02-7.6-4.29-13.76-9.62-13.78Zm0,3.89c2.86,0,5.18,1.44,5.17,3.2,0,1.76-2.33,3.18-5.19,3.17-2.86,0-5.18-1.44-5.17-3.2,0-1.76,2.33-3.18,5.19-3.17Zm-.05,18.46c-4.04,0-7.3-2.22-7.29-4.93,0-2.71,3.28-4.9,7.32-4.89,4.04,.01,7.3,2.22,7.29,4.93,0,2.71-3.28,4.9-7.32,4.89Z"/><path class="cls-6" d="M824.14,1227.57c-2.03,4.37-3.09,9.12-3.1,13.94l-.25,100.69c-.01,6.08,4.95,11.02,11.1,11.04l57.58,.14c6.14,.01,11.13-4.9,11.15-10.98l.25-100.69c.01-4.81-1.03-9.57-3.03-13.95l-73.69-.18Z"/><path class="cls-6" d="M824.14,1227.57c-2.03,4.37-3.09,9.12-3.1,13.94l-.25,100.69c-.01,6.08,4.95,11.02,11.1,11.04l57.58,.14c6.14,.01,11.13-4.9,11.15-10.98l.25-100.69c.01-4.81-1.03-9.57-3.03-13.95l-73.69-.18Z"/><path class="cls-14" d="M900.87,1241.7l-.25,100.7c-.01,6.08-5.01,11-11.15,10.98l-57.58-.14c-6.15-.02-11.11-4.96-11.1-11.04l.25-100.7c.01-4.81,1.07-9.56,3.1-13.93l73.69,.18c2,4.38,3.05,9.14,3.04,13.95Z"/><path class="cls-1" d="M836.06,1342.24l.25-100.69c.01-4.81,1.07-9.56,3.1-13.94l-15.27-.04c-2.03,4.37-3.09,9.12-3.1,13.94l-.25,100.69c-.01,6.08,4.95,11.02,11.1,11.04l15.27,.04c-6.14-.02-11.11-4.96-11.1-11.04Z"/><path class="cls-5" d="M900.87,1241.7l-.25,100.7c-.01,6.08-5.01,11-11.15,10.98l-23.54-.06c6.2,.02,11.25-4.91,11.27-10.98l.25-100.7c.01-4.81-1.05-9.56-3.07-13.95l23.45,.06c2,4.38,3.05,9.14,3.04,13.95Z"/><path class="cls-4" d="M897.84,1227.75l-73.7-.18h0c0-3.22,2.65-5.82,5.9-5.81l61.92,.15c3.25,0,5.88,2.62,5.87,5.84h0Z"/><rect class="cls-10" x="854.49" y="1288.76" width="12.51" height="79.82" transform="translate(-470.03 2186.16) rotate(-89.86)"/></g><g><path class="cls-9" d="M751.62,1195.15h8.8c-1.44-.99-3.24-1.57-5.2-1.57h-220.56c-11.54,0-20.89,8.29-20.89,18.52v11.76c0,10.23,9.35,18.52,20.89,18.52l218.09-.07-1.13-47.17Z"/><path class="cls-12" d="M626.4,1193.62c-11.04,0-19.98,7.93-19.98,17.71v13.29c0,9.78,8.95,17.71,19.98,17.71h137.3v-2.97h-.57l-34.91-2.93-7.06-24.53s13.62-13.56,14.5-13.91c.89-.35,27.46-1.41,27.46-1.41h.57v-2.96h-137.3Z"/><path class="cls-11" d="M754.8,1217.89c0-14.34,8.36-21.3,8.36-21.3h-133.95c-10.14,0-18.35,7.28-18.35,16.27v10.23c0,8.99,8.22,16.27,18.35,16.27h133.95s-8.36-3.41-8.36-21.47Z"/><path class="cls-18" d="M610.86,1212.86v10.23c0,1.35,.19,2.65,.54,3.9,4.52-9.8,13.18-19.24,29.66-22.27,38.48-7.08,122.11-8.13,122.11-8.13h-133.95c-10.14,0-18.35,7.28-18.35,16.27Z"/><path class="cls-8" d="M747.98,1292.7h9.96c-1.63-1.23-3.67-1.97-5.89-1.97h-249.63c-13.06,0-23.65,10.38-23.65,23.18v14.73c0,12.8,10.59,23.18,23.65,23.18l246.84-.08-1.28-59.04Z"/><path class="cls-19" d="M606.27,1290.79c-12.49,0-22.61,9.93-22.61,22.17v16.64c0,12.24,10.12,22.17,22.61,22.17h155.4v-3.72h-.64l-39.51-3.67-7.98-30.71s15.41-16.97,16.42-17.41c1.01-.44,31.07-1.77,31.07-1.77h.64v-3.71h-155.4Z"/><path class="cls-11" d="M751.59,1321.17c0-17.95,9.46-26.66,9.46-26.66h-151.6c-11.47,0-20.77,9.12-20.77,20.36v12.81c0,11.25,9.3,20.36,20.77,20.36h151.6s-9.46-4.27-9.46-26.88Z"/><path class="cls-18" d="M588.68,1314.87v12.81c0,1.68,.21,3.32,.61,4.88,5.11-12.26,14.91-24.08,33.57-27.88,43.55-8.87,138.2-10.18,138.2-10.18h-151.6c-11.47,0-20.77,9.12-20.77,20.36Z"/><path class="cls-14" d="M470.56,1243.82h-9.97c1.63-.98,3.67-1.56,5.89-1.56h249.72c13.07,0,23.66,8.24,23.66,18.4v11.68c0,10.16-10.59,18.4-23.66,18.4l-246.93-.07,1.28-46.85Z"/><path class="cls-5" d="M612.33,1242.3c12.49,0,22.62,7.88,22.62,17.59v13.2c0,9.72-10.13,17.59-22.62,17.59h-155.46v-2.95h.64l39.52-2.91,7.99-24.37s-15.42-13.47-16.42-13.81c-1.01-.35-31.09-1.4-31.09-1.4h-.64v-2.94h155.46Z"/><path class="cls-11" d="M466.95,1266.41c0-14.25-9.47-21.15-9.47-21.15h151.66c11.48,0,20.78,7.23,20.78,16.16v10.16c0,8.92-9.3,16.16-20.78,16.16h-151.66s9.47-3.39,9.47-21.33Z"/><path class="cls-18" d="M629.93,1261.41v10.16c0,1.34-.21,2.63-.61,3.88-5.11-9.73-14.92-19.1-33.58-22.12-43.57-7.04-138.25-8.08-138.25-8.08h151.66c11.48,0,20.78,7.23,20.78,16.16Z"/></g><rect class="cls-20" x="1312.72" y="1262.83" width="23.83" height="546.04" transform="translate(309.18 -219.81) rotate(10.73)"/><polygon class="cls-20" points="2062.25 1808.8 2090.41 1808.8 1985.47 1265.34 1962.05 1269.77 2062.25 1808.8"/><polygon class="cls-20" points="1546.68 1808.8 1574.84 1808.8 1469.89 1265.34 1446.48 1269.77 1546.68 1808.8"/><polygon class="cls-20" points="1805.67 1808.8 1782.8 1809.07 1883.42 1267.78 1906.83 1272.21 1805.67 1808.8"/><path class="cls-11" d="M1703.52,533.42c92.71,9.93,212.69,20.4,333.13,224.8,131.64,223.39,62.34,557.09-41.56,649.82-103.9,92.73-443.24,207.23-728.5,35.82,0,0-172.24-103.88-83.85-276.27,136.03-265.3,116.81-320.62,177.63-424.59,60.82-103.97,146.35-230.64,343.14-209.57Z"/><path class="cls-13" d="M2036.65,758.22c-82.21-139.51-164.2-188.67-237.45-208.98,28.33,29.32,57.06,67.04,85.81,115.83,131.64,223.39,62.34,557.09-41.56,649.82-92.14,82.23-369.44,181.55-629.98,83.44,26.79,29.64,53.12,45.52,53.12,45.52,285.26,171.41,624.6,56.91,728.5-35.82,103.9-92.73,173.2-426.42,41.56-649.82Z"/><path class="cls-1" d="M417.3,691.76c-2.63,20.72,18.95,37.17,38.15,35.87,21.22-1.43,39.22-18.83,42.32-39.68,3.36-22.57-10.2-40.62-31.18-42.27-20.42-1.61-33.49,16.57-27.59,34.91,4.23,13.15,16.23,18.05,22.28,14.42,4.71-2.83,4.43-9.96-1.28-11.22-2.29-.5-4.64,.77-5.86,2.53-5-1.98-9.75-11.08-6.52-20.9,4.12-12.54,19.98-13.26,29.82-7.41,12.53,7.45,14.5,23.48,9.91,36.25-4.83,13.41-18,23.98-32.34,25-16.25,1.15-30.55-11.3-31.84-27.49-.31-3.82-5.39-3.73-5.86-.02Z"/><g><path class="cls-11" d="M1845.82,0c-95.95-.57-174.02,46.75-174.37,105.7-.17,29.47,19.11,56.27,50.44,75.77l-39.46,86.67,82.35-67.07c23.86,7.75,50.99,12.22,79.77,12.39,95.95,.57,174.02-46.75,174.37-105.7C2019.27,48.82,1941.77,.57,1845.82,0Z"/><g><path class="cls-13" d="M1779.35,116.89c8.52,32.34,41.64,51.64,73.98,43.12,32.33-8.53,51.64-41.65,43.11-73.99-8.52-32.34-41.64-51.64-73.98-43.12-32.33,8.53-51.64,41.65-43.11,73.99Z"/><path class="cls-16" d="M1871.64,102.48c4.56,17.29-5.76,35-23.05,39.56-17.29,4.56-34.99-5.76-39.55-23.05l62.6-16.51Z"/></g></g><g><path class="cls-14" d="M855.38,836.88l264.92-1.99c6.05-.05,10.92-4.99,10.87-11.04l-1.33-177.12c-.05-6.05-4.99-10.92-11.04-10.87l-264.92,1.99c-6.05,.05-10.92,4.99-10.87,11.04l1.33,177.12c.05,6.05,4.99,10.92,11.04,10.87Z"/><polygon class="cls-14" points="1121.71 734.38 1207.25 821.55 1101.73 801.85 1121.71 734.38"/><path class="cls-3" d="M1044.54,722.1l-25.74-.46s-32.44-24.22-33.43-32.78c-.99-8.56,4.32-26.68-.71-28.95-5.03-2.27-15.69-4.07-22.42,7.26-4.89,8.23-.82,38.27-3.84,40.27-1.89,1.26-16.69,1.41-27.51,1.35-7.11-.04-13.65,3.87-16.98,10.15v.02c-2.26,4.25-1.24,9.49,2.45,12.57l5.74,4.8-4.52,6c-3.36,4.47-2.49,10.82,1.96,14.21l4.53,3.46-3.1,3.54c-4,4.55-3.15,11.57,1.81,15.04l4.03,2.82-.61,1.11c-2.52,4.64-1.07,10.43,3.33,13.34l4.05,2.68,68.56,1.22c6.42,.11,12.8-1.09,18.74-3.53l24.18-3.56c2.6-.38,4.53-2.61,4.53-5.24l.15-60.01c0-2.9-2.31-5.27-5.21-5.32Z"/></g><polygon class="cls-15" points="1405.87 872.97 1382.04 944.46 1454.66 915.89 1405.87 872.97"/><path class="cls-21" d="M1480.74,660.23c-4.84,.2-18.11,4.62-37.51,41.16-24.77,46.66-60.98,187.62-60.98,187.62l108.08,40.11,13.89-29.42,22.87-226.5s-45-13.03-46.34-12.97Z"/><path class="cls-22" d="M1623.61,639.92c-30.91,.04-107.38,9.03-142.87,20.33,0,0-26.07,223.34,23.47,393.06,11.09,37.99-9.17,157.48-9.17,157.48l320.26-4.21s-37.94-288.88-23.65-335.54c14.29-46.66,14.63-209.28,14.63-209.28,0,0-2.19-.34-71.95-12.36-32.54-5.61-77.72-9.52-110.72-9.47Z"/><path class="cls-2" d="M1660.93,1625.32s-7.08,81.5-20.11,104.06c-13.03,22.57,.69,60.93,1.37,66.2,.69,5.27,27.42,12.79,69.93,8.28,42.51-4.51,41.82-14.29,38.39-30.09-3.43-15.8-26.05-36.11-27.42-51.15-1.37-15.05,13.03-69.21,13.03-69.21l-75.19-28.08Z"/><path class="cls-23" d="M1531.17,1143.52s-221.07-12.23-270.44,17.56c-49.37,29.8,8.93,90.98,8.93,90.98,0,0,179.98,77.99,481.29,95.32,71.35,4.1,77.5-185.41,64.16-201.1-13.34-15.68-283.93-2.77-283.93-2.77Z"/><path class="cls-10" d="M1717.42,1810.19c43.77-4.65,38.36-26.08,34.83-42.35-2.21-10.19-14.77-22.19-22.25-33.55-3.91,3.11-10.28,8.59-29.29,14.19-19.74,5.81-46.8-5.69-64.04-12.89-6.15,22.79-6.43,51.86-5.85,56.27,.71,5.42,42.83,22.98,86.6,18.33Z"/><path class="cls-19" d="M1693.26,1301.14c-8.83,66.61-52.56,398.2-52.56,398.2l101.47,12.54s124.78-432.81,118.38-499.01c-6.4-66.2-53.11-71.77-53.11-71.77,0,0-90.8-16.29-114.18,160.04Z"/><path class="cls-22" d="M1596.05,358.14s33.71-35.55,60.83,7.7c0,0,20.89-11.73,35.55,9.16,0,0,37.74-11.36,46.91,45.07,0,0,19.42-3.66,21.99,19.42,2.57,23.09-9.16,38.48-9.16,38.48,0,0,10.91,8.18,5.95,29.41-4.21,18.05-19.15,20.8-19.15,20.8,0,0-4.03,30.42-17.22,39.58-13.19,9.16-31.15,4.76-31.15,4.76,0,0-4.76,16.49-20.15,15.02-15.39-1.47-34.45-16.12-51.67-9.53-17.22,6.6-61.93-.37-61.93-.37,0,0-50.2-22.35-35.18-73.66,0,0-26.38-23.82-3.3-52.4,0,0-16.86-44.71,16.49-71.09,33.35-26.38,61.2-22.35,61.2-22.35Z"/><path class="cls-2" d="M1601.75,599.47l-6.1,45.28s-13.67,65.23,3.92,77.8c17.59,12.58,74.8-79.66,74.8-79.66l-6.04-114.73-66.57,71.31Z"/><path class="cls-14" d="M1670.27,565.34c-14.53,39.13-49.13,63.19-73.69,72.52l5.17-38.39,66.57-71.31,1.95,37.18Z"/><path class="cls-2" d="M1627.67,407.63c-35.69-12.29-73.74,11.42-79.19,48.22-2.37,15.99-4.51,36.1-4.91,58.09-.96,52.88,26.42,104.35,50.43,104.35s90.38-34.23,92.78-109.31c1.48-46.35-21.66-88.45-59.11-101.35Z"/><path class="cls-2" d="M1669.09,514.91c0,11.67,7.73,21.12,17.27,21.12s17.27-9.46,17.27-21.12-7.73-21.12-17.27-21.12-17.27,9.46-17.27,21.12Z"/><path class="cls-22" d="M1523.64,381.31c-24.8,19.65-33.5,49.51-19.42,66.69,14.08,17.18,45.61,15.18,70.41-4.47,24.8-19.65,33.5-49.51,19.41-66.69-14.08-17.18-45.6-15.18-70.41,4.47Z"/><path class="cls-2" d="M1809.77,686.57c-29.94-11.19-44.59,257.69-48.63,368.36-53.03,5.08-145.45,.04-168.46-1.68-10.82-.81-35.78-9.92-46.54-11.32-11.03-1.44-21.03-2.19-26.45-1.25-1.99,.35-57.26,22.87-61.99,27.81-5.86,6.13-21.72,21.58-19.04,28.26,2.68,6.68,30.49-18.62,30.49-18.62l13.59-7.6c-16.92,16.47-49.2,38.17-44.55,46.07,4.53,7.7,33.65-14.31,54.4-29.32-17.8,16.02-39.91,44.69-34.81,49.16,4.58,4.02,29.73-29.17,56.61-38.73,9.96-3.54,19.89,6.27,27.72,7.45,5.76,.87,14.65,2.72,20.3,1.13l29.1-8.23c9.91,.89,10.16,6.74,20.17,8.86,11.62,2.47,30.69,5.06,45.49,8.67,85.23,20.75,113.66,30.39,139.75,30.38,79.04-.05,83.62-432.94,12.86-459.39Z"/><path class="cls-22" d="M1866.59,939.01c5.61-113.36,4.79-253.09-58.98-276.93-25.16-9.41-69.51,47.15-61.54,279.23,34.04,2.8,84.02,5.06,120.51-2.3Z"/><polygon class="cls-15" points="1509.85 890.3 1516.35 890.3 1614.06 1129.61 1607.33 1128.59 1509.85 890.3"/><path class="cls-2" d="M1364.2,1695.03s8.85,28.29-7,47c-15.85,18.71-81.73,37.07-90.38,47.2-8.65,10.13-7.99,18.76-7.99,18.76l184.9-5.07-2.01-55.65-8.51-39.99-69-12.25Z"/><path class="cls-10" d="M1345.7,1751.36s47.51,19.15,70.46,7.81c22.95-11.34,22.26-14.48,28.9-10.25,6.64,4.23,9.02,56.4,9.02,56.4l-207.91,6.09c-14.47-.33-21.78-10.95-10.03-20.04,8.06-6.23,17.37-10.41,22.67-13.43,16.26-9.3,86.9-26.57,86.9-26.57Z"/><path class="cls-19" d="M1371.21,1195.74c-14.29-29.97-46.79-68.99-103.98-45.49-54.54,22.42-69.18,77.51-51.97,133.92,17.21,56.41,130.5,388.04,134.45,433.64l90.46,.6s-16.44-262.59-20.47-326.06c-3.88-61.07-23.75-144.73-48.48-196.61Z"/><path class="cls-14" d="M1224.37,890.3h302.37c8,0,15.21,4.83,18.24,12.24l93.1,227.07h166.7c4.66,0,8.44,3.78,8.44,8.43h0c0,4.66-3.78,8.43-8.44,8.43h-474.44c-13.04,0-24.87-7.66-30.21-19.56l-93.75-208.83c-5.86-13.05,3.69-27.79,17.99-27.79Z"/><path class="cls-3" d="M1387.16,1022.53c2.04,10.2,10.94,17.02,19.87,15.23,8.93-1.79,14.52-11.5,12.48-21.7-2.04-10.2-10.94-17.02-19.87-15.23-8.93,1.79-14.52,11.5-12.47,21.7Z"/><ellipse class="cls-17" cx="2237.26" cy="419.48" rx="149.3" ry="149.61"/><g><rect class="cls-20" x="2076.69" y="416.54" width="55.04" height="4.24"/><rect class="cls-20" x="2343.12" y="416.54" width="55.04" height="4.24"/><rect class="cls-20" x="2234.91" y="259.71" width="4.23" height="55.16"/><rect class="cls-20" x="2234.91" y="525.63" width="4.23" height="55.16"/><path class="cls-20" d="M2241.81,419.48c0,2.52-2.04,4.57-4.56,4.57s-4.56-2.04-4.56-4.57,2.04-4.57,4.56-4.57,4.56,2.04,4.56,4.57Z"/><path class="cls-20" d="M2237.26,421.52c-.52,0-1.04-.2-1.44-.6l-81.87-82.04c-.8-.8-.8-2.09,0-2.89,.79-.8,2.09-.8,2.88,0l81.87,82.04c.8,.8,.8,2.09,0,2.89-.4,.4-.92,.6-1.44,.6Z"/><path class="cls-20" d="M2263.58,502.39c-.34-.17-.61-.47-.74-.86l-26.46-80.1c-.26-.78,.16-1.62,.94-1.88,.78-.26,1.61,.16,1.87,.94l26.46,80.1c.26,.78-.16,1.62-.94,1.88-.39,.13-.79,.09-1.13-.08Z"/></g><path class="cls-22" d="M2475.21,756.94l13.33-21.64-10.7-4.34c-2.34-.95-3.47-3.62-2.52-5.96h0c.95-2.34,3.62-3.47,5.96-2.52l12.34,5,11.91-19.44-11.43-4.64c-2.34-.95-3.47-3.62-2.52-5.96h0c.95-2.34,3.62-3.47,5.96-2.52l13.07,5.3,13.84-22.26c1.18-1.89,3.54-2.66,5.61-1.82l2,.81c2.62,1.06,3.66,4.22,2.18,6.63l-12.87,21,18.95,7.68,13.84-22.26c1.18-1.89,3.54-2.66,5.61-1.82l2.18,.88c2.62,1.06,3.66,4.22,2.18,6.63l-12.87,21,10.7,4.34c2.34,.95,3.47,3.62,2.52,5.96h0c-.95,2.34-3.62,3.47-5.96,2.52l-12.34-5-11.73,19.51,11.43,4.64c2.34,.95,3.47,3.62,2.52,5.96h0c-.95,2.34-3.62,3.47-5.96,2.52l-13.07-5.3-14.13,22.96c-1.17,1.9-3.55,2.68-5.62,1.84l-2.33-.95c-2.62-1.06-3.66-4.23-2.18-6.64l13.33-21.64-18.95-7.68-14.13,22.95c-1.17,1.9-3.55,2.68-5.62,1.84l-2.33-.95c-2.62-1.06-3.66-4.23-2.18-6.64Zm48.29-17.34l11.91-19.44-18.95-7.69-11.91,19.44,18.95,7.68Z"/><path class="cls-1" d="M1306.13,168.18l13.63-30.75-17.61-28.66c-2.01-3.26,.6-7.41,4.41-7.02l33.46,3.46,21.81-25.6c2.48-2.92,7.23-1.72,8.04,2.03l7.05,32.89,31.09,12.83c3.54,1.46,3.87,6.35,.55,8.27l-29.1,16.87-2.6,33.54c-.3,3.82-4.84,5.64-7.7,3.08l-25.04-22.46-32.7,7.89c-3.72,.9-6.86-2.86-5.31-6.37Z"/><path class="cls-13" d="M2293.16,168.15l10.22-23.07-13.21-21.5c-1.5-2.45,.45-5.56,3.31-5.26l25.1,2.59,16.36-19.2c1.86-2.19,5.43-1.29,6.03,1.52l5.29,24.67,23.32,9.63c2.66,1.1,2.9,4.76,.42,6.2l-21.83,12.65-1.95,25.15c-.22,2.87-3.63,4.23-5.77,2.31l-18.78-16.85-24.53,5.92c-2.79,.67-5.15-2.15-3.98-4.77Z"/><path class="cls-1" d="M2191.71,827.22l-1.62-19.11-16.66-9.5c-1.9-1.08-1.73-3.87,.28-4.72l17.67-7.44,3.89-18.78c.44-2.14,3.15-2.84,4.57-1.19l12.54,14.51,19.06-2.11c2.17-.24,3.67,2.11,2.54,3.98l-9.92,16.41,7.89,17.48c.9,1.99-.87,4.15-3,3.65l-18.67-4.36-14.18,12.91c-1.62,1.47-4.22,.45-4.4-1.73Z"/><path class="cls-13" d="M663.02,546.29l7.49-16.92-9.69-15.76c-1.1-1.8,.33-4.08,2.43-3.86l18.4,1.9,12-14.08c1.37-1.6,3.98-.94,4.42,1.12l3.88,18.09,17.1,7.06c1.95,.8,2.13,3.49,.3,4.55l-16.01,9.28-1.43,18.45c-.16,2.1-2.66,3.1-4.23,1.7l-13.77-12.36-17.99,4.34c-2.05,.49-3.77-1.58-2.92-3.5Z"/><path class="cls-8" d="M1243.11,515.68l7.49-16.92-9.69-15.76c-1.1-1.8,.33-4.08,2.43-3.86l18.4,1.9,12-14.08c1.37-1.6,3.98-.94,4.42,1.12l3.88,18.09,17.1,7.06c1.95,.8,2.13,3.49,.31,4.55l-16.01,9.28-1.43,18.45c-.16,2.1-2.66,3.1-4.23,1.7l-13.77-12.36-17.99,4.34c-2.05,.49-3.77-1.57-2.92-3.5Z"/><polygon class="cls-8" points="954.3 241.65 984 237.34 996.21 284.36 1040.41 283.42 1055.3 317.11 1072.36 309.58 1052.44 264.51 1010.55 265.4 997.85 216.49 953.16 222.97 954.3 241.65"/><polygon class="cls-22" points="890.61 1029.31 913.09 1009.42 949.08 1042.05 985.53 1017.02 1016.46 1037.03 1026.59 1021.38 985.23 994.61 950.69 1018.33 913.24 984.38 879.42 1014.31 890.61 1029.31"/><path class="cls-8" d="M537.61,1053.91l18.86-30.63-15.15-6.14c-3.31-1.34-4.91-5.12-3.57-8.43h0c1.34-3.31,5.12-4.91,8.43-3.57l17.47,7.08,16.86-27.51-16.18-6.56c-3.31-1.34-4.91-5.12-3.57-8.43h0c1.34-3.31,5.12-4.91,8.43-3.57l18.5,7.5,19.58-31.5c1.66-2.68,5.01-3.77,7.93-2.58l2.82,1.15c3.71,1.5,5.18,5.97,3.09,9.38l-18.21,29.73,26.82,10.88,19.58-31.5c1.66-2.68,5.01-3.77,7.93-2.58l3.08,1.25c3.71,1.5,5.18,5.97,3.09,9.38l-18.21,29.73,15.15,6.14c3.31,1.34,4.91,5.12,3.57,8.43h0c-1.34,3.31-5.12,4.91-8.43,3.57l-17.47-7.08-16.6,27.61,16.18,6.56c3.31,1.34,4.91,5.12,3.57,8.43h0c-1.34,3.31-5.12,4.91-8.43,3.57l-18.5-7.5-20,32.49c-1.66,2.69-5.02,3.79-7.95,2.61l-3.3-1.34c-3.71-1.51-5.18-5.99-3.08-9.4l18.86-30.63-26.82-10.88-20,32.49c-1.66,2.69-5.02,3.79-7.95,2.61l-3.3-1.34c-3.71-1.51-5.18-5.99-3.08-9.4Zm68.34-24.54l16.86-27.51-26.82-10.88-16.86,27.51,26.82,10.88Z"/><g><path class="cls-19" d="M2250.94,1441.45c-1.92-16.94-4.2-34.27-12.06-49.39-9.56-18.38-26.36-31.65-41.03-46.26-27.42-27.3-48.52-60.93-61.19-97.53-9.79-28.3-14.68-58.45-28.17-85.17-8.24-16.32-19.48-30.91-28.84-46.61-22.12-37.11-34.17-80.96-64.17-112.02-5.77,37.66,5.64,77.62,30.41,106.51,7.39,8.62,15.96,16.39,21.59,26.25,10.22,17.9,9.29,39.75,10.49,60.34,2.25,38.7,13.16,76.87,31.68,110.89,19.68,36.15,48.1,68.33,58.62,108.14,7.89,29.83,5.54,63.29,22.36,89.14,1.82,2.8,3.91,5.62,4.35,8.93,.25,1.86-.04,3.75-.33,5.6-.38,2.4-.75,4.8-1.13,7.2-3.83,24.41-7.78,55.48,13.2,73.75,14.54,12.66,33.25,12.95,43.69-3.87,10.51-16.94,9.58-41.72,8.8-60.78-1.3-31.74-4.7-63.57-8.27-95.12Z"/><path class="cls-23" d="M2288.73,1421.82c-8.16-28.26-20.83-55.17-27.18-83.9-6.16-27.86-6.21-56.66-6.23-85.2-.02-31.27-.04-62.54-.07-93.81-.01-19.47-.04-39.04-3.25-58.24-6.92-41.31-28.39-79.5-32.03-121.23-1.57-18.04,.25-36.28-1.73-54.28-1.13-10.29-3.77-20.78-8.53-29.91-5.12-9.81-19.27-9.38-23.9,.67-10.43,22.59-17.04,47.02-12.83,71.22,2.53,14.52,8.82,28.06,13.51,42.03,20.91,62.2,9.81,131.06,25.99,194.67,4.88,19.2,12.27,38.03,13.13,57.82,2.06,47.38-33.33,90.65-30.08,137.96,2.66,38.79,30.55,70.89,42.25,107.96,6.55,20.75,7.96,42.9,14.98,63.5,5.45,16,18.14,35.44,37.84,30.58,18.7-4.61,13.05-19.88,12.22-34.46-2.83-49.33-.17-97.19-14.09-145.38Z"/><path class="cls-19" d="M2331.54,1447.71c-.82-14.68-3.3-29.45-1.25-44.01,1.73-12.3,6.63-23.89,10.13-35.81,6.55-22.33,8.18-45.77,9.76-68.99,2.88-42.21,5.77-84.42,8.65-126.63,4.48-65.61,8.99-131.41,21.26-196.02,3.41-17.94,7.23-37.38-.83-53.75-1.7-3.45-5.04-7.11-8.71-5.96-2.61,.82-3.89,3.69-4.84,6.27-26.82,72.88-36.95,151.34-66.89,222.99-7.17,17.16-15.51,34.05-19.22,52.28-4.46,21.89-2.01,44.51-1.43,66.84,.83,32.03-2.29,64.31-11.14,95.11-4.63,16.11-10.82,31.86-13.36,48.43-3.16,20.66-.51,41.71,1.47,62.52,3.81,40.01,5.09,80.26,3.86,120.43-.73,23.62,19.21,23,32.42,8.49,9.24-10.15,9.15-21.29,12.31-33.92,10.38-41.47,30.34-73.31,27.81-118.27Z"/><path class="cls-23" d="M2206.98,1511.75c-17.63-28.33-52.75-44.43-64.02-75.84-2.87-7.99-3.99-16.59-7.49-24.33-7.78-17.18-25.47-26.89-42.86-34.8-2.41-1.1-5.16,.65-5.2,3.31h0c-.06,4.22,1.94,8.25,5.44,10.61,13.4,9.02,23.58,22.8,28.11,38.34,5.37,18.41,3.04,38.59,9.72,56.57,5.6,15.09,17.14,27.43,22.56,42.59,4.95,13.86,4.43,29,6.76,43.53,2.33,14.53,8.78,29.96,22.13,36.11,48.29,22.25,36.22-77.79,24.83-96.09Z"/><path class="cls-19" d="M2407.83,1502.41c-.75,13.69,1.34,28.05-4.02,40.67-3.43,8.07-9.6,14.6-14.66,21.76-17.78,25.14-24.22,60.77-51.53,74.92-1.8,.93-3.81,1.77-5.81,1.4-2.8-.52-4.63-3.22-5.76-5.84-6.7-15.6,.82-33.18,5.27-49.56,.78-2.87,1.43-6.06,.06-8.7-1.5-2.9-4.93-4.16-7.27-6.43-4.67-4.54-4.23-12.05-3.3-18.5,2.32-16.12,5.57-32.1,9.74-47.83,2.37-8.92,5.1-17.92,10.24-25.59,5.66-8.43,13.88-14.73,21.58-21.35,34.01-29.26,60.06-67.72,74.65-110.19,3.16-9.19,5.97-18.9,12.49-26.1,6.52-7.2,18.14-10.91,26.09-5.32,5.65,3.98-17.49,41.2-20.19,45.67-7.71,12.76-7.81,23.86-12.17,38.02-10.68,34.71-33.36,65.78-35.4,102.97Z"/><path class="cls-23" d="M2380.91,1518.24c5.05-13.06,10.15-26.3,11.81-40.21,1.85-15.46-.6-31.28,2.04-46.63,3.4-19.73,14.9-37.09,20.6-56.28,4.11-13.86,5.12-28.42,7.59-42.67,7.06-40.74,26.22-80.55,20.72-121.53-1.2-8.91-5.22-19.3-14.07-20.82-8.01-1.38-15.3,5.95-17.38,13.82-2.08,7.87-.53,16.17,.04,24.29,1.59,22.65-4.87,45.79-17.96,64.32-12.58,17.8-30.84,31.21-42.16,49.84-13.89,22.86-15.78,50.75-22.86,76.55-14.09,51.31-49.44,96.06-55.88,148.88-2.56,21.02,2.37,46.57,21.77,54.96,56.1,24.29,73.04-71.66,85.75-104.53Z"/><path class="cls-14" d="M2282.83,1583.36h-128.75c-8.8,0-15.3,8.24-13.26,16.82l46.93,197.92c1.46,6.16,6.95,10.5,13.26,10.5h154.66c6.31,0,11.8-4.35,13.26-10.5l46.93-197.92c2.04-8.58-4.46-16.82-13.26-16.82h-119.78Z"/></g><g><rect class="cls-20" x="365.2" y="1351.71" width="625.85" height="32.32"/><rect class="cls-20" x="376.52" y="1539.22" width="409.18" height="28.28"/><rect class="cls-20" x="903.24" y="1367.88" width="26.4" height="440.86"/><rect class="cls-20" x="529.88" y="1367.88" width="26.4" height="440.86"/><polygon class="cls-20" points="715.46 1808.74 857.67 1371.67 834.36 1364.08 689.68 1808.74 715.46 1808.74"/><polygon class="cls-20" points="315.42 1808.74 437.05 1370.71 413.43 1364.15 289.98 1808.74 315.42 1808.74"/></g><path class="cls-20" d="M2237.26,244.75c-96.3,0-174.37,78.23-174.37,174.73s78.07,174.73,174.37,174.73,174.37-78.23,174.37-174.73-78.07-174.73-174.37-174.73Zm9.35,324.05c-82.29,5.17-153.19-57.48-158.36-139.95-5.16-82.47,57.36-153.51,139.66-158.69,82.29-5.18,153.19,57.48,158.36,139.95,5.17,82.47-57.36,153.51-139.66,158.69Z"/></g><rect class="cls-21" x="124.46" y="1806.04" width="2874.63" height="19.5"/></g><path class="cls-3" d="M1572.25,559.58l46.49-.76s-.78,17.67-21.22,18.6c-24.92,1.13-25.27-17.84-25.27-17.84Z"/></g></g></g></svg>